<svg xmlns="http://www.w3.org/2000/svg" xmlns:xlink="http://www.w3.org/1999/xlink" width="500" zoomAndPan="magnify" viewBox="0 0 375 374.999991" height="500" preserveAspectRatio="xMidYMid meet" version="1.0"><defs><g/><clipPath id="675910fb0c"><path d="M 13.917969 156.75 L 169.734375 156.75 L 169.734375 174.078125 L 13.917969 174.078125 Z M 13.917969 156.75 " clip-rule="nonzero"/></clipPath><clipPath id="be6259e888"><path d="M 196.816406 67.734375 L 352.632812 67.734375 L 352.632812 85.0625 L 196.816406 85.0625 Z M 196.816406 67.734375 " clip-rule="nonzero"/></clipPath></defs><g clip-path="url(#675910fb0c)"><path fill="#EDDDBFff" d="M 13.917969 156.75 L 169.726562 156.75 L 169.726562 174.078125 L 13.917969 174.078125 Z M 13.917969 156.75 " fill-opacity="1" fill-rule="nonzero"/></g><g clip-path="url(#be6259e888)"><path fill="#EDDDBFff" d="M 196.816406 67.734375 L 352.625 67.734375 L 352.625 85.0625 L 196.816406 85.0625 Z M 196.816406 67.734375 " fill-opacity="1" fill-rule="nonzero"/></g><g fill="#EDDDBFff" fill-opacity="1"><g transform="translate(10.923005, 131.500725)"><g><path d="M 32.796875 1.40625 C 26.929688 1.40625 21.878906 0.4375 17.640625 -1.5 C 13.410156 -3.4375 10.144531 -6.1875 7.84375 -9.75 C 5.550781 -13.3125 4.40625 -17.492188 4.40625 -22.296875 L 20 -22.296875 C 20 -18.960938 21.148438 -16.363281 23.453125 -14.5 C 25.753906 -12.632812 28.835938 -11.703125 32.703125 -11.703125 C 36.035156 -11.703125 38.664062 -12.347656 40.59375 -13.640625 C 42.53125 -14.941406 43.5 -16.757812 43.5 -19.09375 C 43.5 -21.5625 42.332031 -23.5625 40 -25.09375 C 37.664062 -26.632812 34.03125 -27.9375 29.09375 -29 C 20.894531 -30.726562 14.828125 -33.359375 10.890625 -36.890625 C 6.960938 -40.429688 5 -45.035156 5 -50.703125 C 5 -57.097656 7.332031 -62.144531 12 -65.84375 C 16.664062 -69.550781 23.03125 -71.40625 31.09375 -71.40625 C 36.632812 -71.40625 41.4375 -70.453125 45.5 -68.546875 C 49.5625 -66.648438 52.707031 -63.984375 54.9375 -60.546875 C 57.175781 -57.117188 58.296875 -53.035156 58.296875 -48.296875 L 43 -48.296875 C 43 -51.429688 41.960938 -53.898438 39.890625 -55.703125 C 37.828125 -57.503906 34.960938 -58.40625 31.296875 -58.40625 C 27.960938 -58.40625 25.328125 -57.753906 23.390625 -56.453125 C 21.460938 -55.148438 20.5 -53.332031 20.5 -51 C 20.5 -48.863281 21.566406 -47.0625 23.703125 -45.59375 C 25.835938 -44.132812 29.570312 -42.769531 34.90625 -41.5 C 43.632812 -39.4375 49.929688 -36.671875 53.796875 -33.203125 C 57.660156 -29.734375 59.59375 -25.234375 59.59375 -19.703125 C 59.59375 -13.097656 57.207031 -7.925781 52.4375 -4.1875 C 47.675781 -0.457031 41.128906 1.40625 32.796875 1.40625 Z M 32.796875 1.40625 "/></g></g></g><g fill="#EDDDBFff" fill-opacity="1"><g transform="translate(95.720481, 131.500725)"><g><path d="M 8.40625 0 L 8.40625 -70 L 21.90625 -70 L 52.796875 -27.40625 L 52.796875 -70 L 68.59375 -70 L 68.59375 0 L 55.09375 0 L 24.203125 -42.90625 L 24.203125 0 Z M 8.40625 0 "/></g></g></g><g fill="#EDDDBFff" fill-opacity="1"><g transform="translate(185.42214, 179.313461)"><g><path d="M 40.5 1.40625 C 33.4375 1.40625 27.171875 -0.144531 21.703125 -3.25 C 16.234375 -6.351562 11.960938 -10.632812 8.890625 -16.09375 C 5.828125 -21.5625 4.296875 -27.863281 4.296875 -35 C 4.296875 -42.132812 5.828125 -48.429688 8.890625 -53.890625 C 11.960938 -59.359375 16.210938 -63.644531 21.640625 -66.75 C 27.078125 -69.851562 33.332031 -71.40625 40.40625 -71.40625 C 46.332031 -71.40625 51.757812 -70.269531 56.6875 -68 C 61.625 -65.726562 65.773438 -62.523438 69.140625 -58.390625 C 72.515625 -54.265625 74.867188 -49.398438 76.203125 -43.796875 L 59.796875 -43.796875 C 58.460938 -47.660156 56.09375 -50.707031 52.6875 -52.9375 C 49.289062 -55.175781 45.363281 -56.296875 40.90625 -56.296875 C 36.96875 -56.296875 33.445312 -55.394531 30.34375 -53.59375 C 27.25 -51.800781 24.832031 -49.300781 23.09375 -46.09375 C 21.363281 -42.894531 20.5 -39.195312 20.5 -35 C 20.5 -30.800781 21.363281 -27.097656 23.09375 -23.890625 C 24.832031 -20.691406 27.234375 -18.191406 30.296875 -16.390625 C 33.367188 -14.597656 36.867188 -13.703125 40.796875 -13.703125 C 45.398438 -13.703125 49.429688 -14.882812 52.890625 -17.25 C 56.359375 -19.613281 58.828125 -22.796875 60.296875 -26.796875 L 76.703125 -26.796875 C 75.566406 -21.128906 73.296875 -16.175781 69.890625 -11.9375 C 66.492188 -7.707031 62.28125 -4.425781 57.25 -2.09375 C 52.21875 0.238281 46.632812 1.40625 40.5 1.40625 Z M 40.5 1.40625 "/></g></g></g><g fill="#EDDDBFff" fill-opacity="1"><g transform="translate(286.818973, 179.313461)"><g><path d="M 8.40625 0 L 8.40625 -70 L 36.09375 -70 C 43.5 -70 49.96875 -68.53125 55.5 -65.59375 C 61.03125 -62.664062 65.328125 -58.566406 68.390625 -53.296875 C 71.460938 -48.035156 73 -41.9375 73 -35 C 73 -28 71.460938 -21.878906 68.390625 -16.640625 C 65.328125 -11.410156 61.03125 -7.328125 55.5 -4.390625 C 49.96875 -1.460938 43.5 0 36.09375 0 Z M 24.296875 -14.59375 L 35.796875 -14.59375 C 39.929688 -14.59375 43.566406 -15.441406 46.703125 -17.140625 C 49.835938 -18.847656 52.285156 -21.234375 54.046875 -24.296875 C 55.816406 -27.367188 56.703125 -30.9375 56.703125 -35 C 56.703125 -39.132812 55.816406 -42.71875 54.046875 -45.75 C 52.285156 -48.78125 49.820312 -51.144531 46.65625 -52.84375 C 43.488281 -54.550781 39.800781 -55.40625 35.59375 -55.40625 L 24.296875 -55.40625 Z M 24.296875 -14.59375 "/></g></g></g></svg>